<svg width="33" height="37" viewBox="0 0 33 37" fill="none" xmlns="http://www.w3.org/2000/svg">
<mask id="mask0_9_5875" style="mask-type:luminance" maskUnits="userSpaceOnUse" x="1" y="0" width="32" height="36">
<path d="M33 0H1V36H33V0Z" fill="white"/>
</mask>
<g mask="url(#mask0_9_5875)">
<path d="M1.75217 34.846C2.09824 35.2378 2.52919 35.5454 3.01217 35.7454C3.49516 35.9454 4.01743 36.0325 4.53917 36H4.54517C10.5672 35.992 16.5888 35.9897 22.6102 35.993H29.5172C29.7022 35.993 29.8882 35.986 30.0722 35.972C30.7402 35.9438 31.3803 35.6964 31.8936 35.2681C32.4069 34.8397 32.7649 34.2542 32.9122 33.602C33.024 32.8675 33.0274 32.1205 32.9222 31.385C32.581 29.1443 31.4996 27.0823 29.8504 25.5275C28.2012 23.9727 26.0791 23.0146 23.8222 22.806C23.2922 22.769 22.7452 22.779 22.1672 22.789C21.8782 22.794 21.5792 22.799 21.2672 22.799H20.5502L21.0262 22.27C21.2912 21.975 21.5462 21.697 21.7912 21.43C22.3012 20.874 22.7822 20.349 23.2262 19.813C24.2654 18.7498 24.9275 17.3753 25.1112 15.9C25.1442 15.7467 25.2108 15.6027 25.3063 15.4784C25.4017 15.354 25.5236 15.2525 25.6632 15.181C25.914 15.0413 26.1339 14.8521 26.3094 14.6249C26.4849 14.3976 26.6124 14.137 26.6842 13.859C26.7385 13.6461 26.7475 13.4242 26.7104 13.2076C26.6734 12.9911 26.5912 12.7847 26.4692 12.602C26.0953 11.9987 25.9249 11.2914 25.9832 10.584C25.9832 9.93 25.9902 9.27501 25.9832 8.62101C25.9118 6.33567 24.9637 4.16545 23.3353 2.56036C21.7069 0.955277 19.5233 0.0384546 17.2372 4.91913e-06H17.0762C15.1588 -0.00199839 13.2908 0.607928 11.744 1.74103C10.1972 2.87412 9.05243 4.47126 8.47617 6.3C8.12641 7.59775 7.98631 8.94304 8.06117 10.285C8.06117 10.657 8.06117 11.029 8.05417 11.401C8.04482 11.6979 7.94697 11.9852 7.77317 12.226C7.59458 12.4522 7.46701 12.7144 7.39917 12.9945C7.33134 13.2747 7.32486 13.5661 7.38017 13.849C7.44345 14.1341 7.56728 14.4023 7.74326 14.6354C7.91925 14.8685 8.14327 15.0611 8.40017 15.2C8.54238 15.2807 8.66465 15.3924 8.75794 15.5267C8.85123 15.661 8.91316 15.8146 8.93917 15.976C9.02731 17.0792 9.45965 18.1268 10.1752 18.971C10.7672 19.721 11.3852 20.438 12.0382 21.198C12.3242 21.531 12.6142 21.868 12.9072 22.213L13.3492 22.735H11.7492C11.5772 22.735 11.4062 22.735 11.2362 22.735C8.70693 22.7196 6.26227 23.645 4.37722 25.3313C2.49217 27.0177 1.30136 29.3447 1.03617 31.86C0.926856 32.3794 0.933732 32.9165 1.0563 33.4329C1.17888 33.9493 1.41411 34.4322 1.74517 34.847M12.4452 2.43401C13.6755 1.52996 15.1456 1.00967 16.6707 0.938501C18.1958 0.867334 19.708 1.24846 21.0172 2.034C22.3577 2.78473 23.4471 3.91414 24.149 5.28091C24.8509 6.64767 25.1341 8.19109 24.9632 9.71801L24.8812 10.442L24.4002 9.887C24.0232 9.47707 23.5452 9.17323 23.0141 9.00582C22.4829 8.83841 21.9171 8.81331 21.3732 8.933C20.198 9.0376 19.0148 9.01211 17.8452 8.85701C17.0687 8.7186 16.3235 8.44151 15.6452 8.039C14.8202 7.54093 13.8332 7.38522 12.895 7.60515C11.9568 7.82508 11.1418 8.40321 10.6242 9.216C10.4182 9.522 10.2172 9.833 10.0102 10.153L9.22817 11.353L9.11117 10.5C8.85101 8.97731 9.02664 7.41209 9.61778 5.98491C10.2089 4.55774 11.1915 3.32677 12.4522 2.43401M13.1062 20.98L12.5772 20.367C12.0002 19.7 11.4002 19.008 10.8372 18.313C10.1904 17.5104 9.83749 16.5108 9.83717 15.48C9.82117 14.746 9.82117 14.746 9.12617 14.48L9.01917 14.439C8.83389 14.3428 8.67267 14.2061 8.54749 14.0391C8.42232 13.872 8.33642 13.6788 8.29617 13.474C8.27192 13.3584 8.27296 13.239 8.29919 13.1239C8.32543 13.0087 8.37625 12.9007 8.44817 12.807C8.53644 12.6982 8.64639 12.6089 8.77103 12.5448C8.89568 12.4808 9.03228 12.4434 9.17217 12.435C9.38336 12.4152 9.58575 12.3407 9.75937 12.2188C9.93298 12.097 10.0718 11.9319 10.1622 11.74C10.6732 10.913 11.0722 10.287 11.4562 9.712C11.6366 9.41228 11.8754 9.15183 12.1583 8.94608C12.4413 8.74032 12.7626 8.59346 13.1034 8.5142C13.4441 8.43493 13.7973 8.42487 14.142 8.48462C14.4868 8.54436 14.816 8.67269 15.1102 8.86201C16.7245 9.78432 18.5886 10.1738 20.4372 9.97501C20.8692 9.94901 21.3002 9.907 21.7312 9.865L22.0002 9.841C22.2266 9.79767 22.4597 9.80264 22.6841 9.85558C22.9085 9.90853 23.1192 10.0083 23.3025 10.1482C23.4857 10.2882 23.6373 10.4653 23.7473 10.6679C23.8574 10.8705 23.9235 11.0941 23.9412 11.324C23.936 11.6062 24.0388 11.8797 24.2286 12.0887C24.4184 12.2976 24.6808 12.4261 24.9622 12.448C25.0998 12.4673 25.2318 12.5151 25.3499 12.5882C25.4681 12.6614 25.5696 12.7584 25.6482 12.873C25.7135 12.9737 25.7563 13.0873 25.7736 13.206C25.7908 13.3248 25.7822 13.4459 25.7482 13.561C25.6888 13.7592 25.5873 13.9423 25.4506 14.0976C25.3139 14.2529 25.1452 14.3769 24.9562 14.461C24.2232 14.708 24.2232 14.708 24.2292 15.276C24.2341 16.5588 23.7602 17.7972 22.9002 18.749C22.0942 19.702 21.2652 20.618 20.4352 21.472C19.9726 21.9016 19.4196 22.2219 18.8167 22.4091C18.2139 22.5964 17.5767 22.6459 16.9522 22.554C16.7755 22.5738 16.5979 22.5838 16.4202 22.584C15.7832 22.5822 15.1549 22.4369 14.5819 22.1588C14.0088 21.8808 13.5058 21.4772 13.1102 20.978M18.5572 26.592C18.0755 26.9027 17.5108 27.0594 16.938 27.0414C16.3651 27.0235 15.8113 26.8317 15.3501 26.4914C14.8889 26.1512 14.5421 25.6787 14.3558 25.1367C14.1695 24.5947 14.1526 24.0089 14.3072 23.457L14.3842 23.15L14.6962 23.223C16.2336 23.5762 17.831 23.5779 19.3692 23.228L19.6922 23.158L19.7572 23.477C19.9071 24.0565 19.872 24.6684 19.6568 25.227C19.4417 25.7856 19.0571 26.2629 18.5572 26.592ZM10.5162 23.724C10.8382 23.707 11.1612 23.704 11.4842 23.703C11.7762 23.703 12.0692 23.703 12.3602 23.685C12.4753 23.6623 12.5941 23.6663 12.7074 23.6967C12.8207 23.7271 12.9255 23.7831 13.0138 23.8603C13.1021 23.9376 13.1715 24.0341 13.2166 24.1424C13.2617 24.2507 13.2814 24.3679 13.2742 24.485C13.3365 25.4071 13.7365 26.2739 14.3977 26.9197C15.0588 27.5655 15.9347 27.9451 16.8581 27.9858C17.7814 28.0265 18.6873 27.7255 19.4028 27.1404C20.1182 26.5553 20.5929 25.7271 20.7362 24.814C20.8652 23.841 20.9922 23.726 21.9682 23.689H22.0522C24.4493 23.5097 26.8245 24.2527 28.6922 25.766C29.7325 26.5871 30.5768 27.6298 31.1635 28.8182C31.7503 30.0066 32.0648 31.3108 32.0842 32.636C32.1068 32.9524 32.0638 33.27 31.9578 33.5689C31.8517 33.8678 31.6851 34.1416 31.4682 34.373C31.2309 34.5998 30.9504 34.7764 30.6434 34.8924C30.3363 35.0084 30.0091 35.0613 29.6812 35.048C26.6518 35.052 23.6222 35.052 20.5922 35.048H17.0362C15.8362 35.048 14.6492 35.048 13.4552 35.048C10.5552 35.042 7.55517 35.034 4.60717 35.072H4.55917C4.20497 35.0877 3.85124 35.0317 3.51924 34.9073C3.18724 34.7829 2.8838 34.5926 2.62717 34.348C2.38089 34.0804 2.19348 33.7642 2.07704 33.4197C1.9606 33.0752 1.91772 32.7101 1.95117 32.348C2.09877 30.1198 3.04705 28.0201 4.62112 26.4361C6.1952 24.8521 8.28892 23.8906 10.5162 23.729" fill="white"/>
</g>
<path d="M4.54007 36C4.01832 36.0326 3.49597 35.9455 3.01297 35.7455C2.52998 35.5455 2.09911 35.2379 1.75308 34.846C1.42203 34.4312 1.18669 33.9483 1.06412 33.4319C0.941547 32.9155 0.934666 32.3784 1.04398 31.859C1.30895 29.3436 2.4997 27.0165 4.3848 25.3301C6.2699 23.6437 8.71475 22.7184 11.2441 22.734C11.4141 22.734 11.585 22.734 11.757 22.734H12.2011H13.356L12.914 22.212C12.622 21.866 12.3311 21.53 12.0461 21.197C11.3921 20.437 10.773 19.72 10.182 18.969C9.46641 18.1252 9.03367 17.0779 8.94498 15.975C8.91897 15.8136 8.85712 15.66 8.76383 15.5257C8.67054 15.3914 8.54825 15.2798 8.40604 15.199C8.14955 15.0606 7.92575 14.8687 7.74979 14.6363C7.57382 14.4039 7.44976 14.1365 7.38602 13.852C7.33057 13.5692 7.33692 13.2778 7.40457 12.9977C7.47223 12.7175 7.59958 12.4553 7.77799 12.229C7.95231 11.9884 8.05063 11.701 8.06009 11.404C8.06809 11.032 8.06705 10.661 8.06705 10.288C7.99227 8.94647 8.13197 7.60156 8.48099 6.30404C9.05739 4.47537 10.2023 2.87833 11.7491 1.74525C13.2958 0.612177 15.1637 0.0021855 17.0811 0.0040325H17.241C19.5264 0.0434986 21.7091 0.960772 23.3366 2.56575C24.9641 4.17074 25.9118 6.34037 25.9831 8.62503C25.9941 9.27903 25.9901 9.93403 25.9831 10.588C25.9251 11.2954 26.0954 12.0026 26.469 12.606C26.591 12.7886 26.6731 12.9948 26.7101 13.2112C26.7472 13.4276 26.7383 13.6493 26.684 13.862C26.6124 14.1401 26.485 14.4008 26.3095 14.628C26.134 14.8553 25.914 15.0445 25.663 15.184C25.5236 15.2557 25.4019 15.3574 25.3064 15.4817C25.211 15.606 25.1443 15.7499 25.111 15.903C24.9265 17.3787 24.2633 18.7533 23.2231 19.816C22.7781 20.352 22.297 20.877 21.787 21.433C21.542 21.699 21.287 21.978 21.022 22.273L20.5461 22.802H21.2641C21.5771 22.802 21.877 22.797 22.164 22.791C22.742 22.781 23.288 22.771 23.819 22.808C26.0759 23.0168 28.1979 23.9749 29.8471 25.5297C31.4962 27.0844 32.5776 29.1464 32.919 31.387C33.0238 32.1229 33.0201 32.8702 32.908 33.605C32.7611 34.2573 32.4035 34.843 31.8903 35.2716C31.3771 35.7002 30.737 35.9477 30.069 35.976C29.885 35.989 29.6991 35.997 29.5141 35.997H22.6071C16.5864 35.997 10.5647 35.999 4.54203 36.003L4.54007 36ZM12.361 23.685C12.069 23.699 11.777 23.7 11.484 23.702C11.161 23.702 10.838 23.702 10.516 23.724C8.28904 23.8856 6.19563 24.847 4.62174 26.4308C3.04785 28.0146 2.09966 30.1141 1.95206 32.342C1.91848 32.7041 1.96116 33.0691 2.07743 33.4136C2.19369 33.7581 2.38089 34.0744 2.62699 34.342C2.88384 34.5866 3.18753 34.7769 3.51969 34.9013C3.85185 35.0257 4.20574 35.0817 4.56009 35.066H4.60807C7.55607 35.028 10.5551 35.035 13.4561 35.042C14.6491 35.042 15.841 35.049 17.037 35.042H20.5931C23.6231 35.042 26.6527 35.042 29.682 35.042C30.0098 35.0555 30.3369 35.0026 30.6438 34.8866C30.9507 34.7707 31.2311 34.5939 31.4681 34.367C31.6849 34.1356 31.8517 33.8619 31.9577 33.5629C32.0637 33.264 32.1067 32.9464 32.084 32.63C32.0649 31.3046 31.7506 30.0002 31.1639 28.8116C30.5771 27.623 29.7326 26.5802 28.692 25.759C26.8245 24.2461 24.4498 23.5032 22.053 23.682H21.9681C20.9921 23.718 20.868 23.833 20.736 24.806C20.5927 25.7191 20.118 26.5473 19.4026 27.1324C18.6872 27.7175 17.7813 28.0185 16.8579 27.9778C15.9346 27.9371 15.0586 27.5576 14.3975 26.9117C13.7363 26.2659 13.3364 25.3991 13.2741 24.477C13.2161 23.927 12.9591 23.677 12.4471 23.677L12.361 23.685ZM14.303 23.457C14.1489 24.0244 14.1736 24.6255 14.3737 25.1783C14.5738 25.7311 14.9395 26.2087 15.4211 26.546C15.8791 26.865 16.4219 27.0398 16.98 27.048C17.5381 27.0562 18.0858 26.8974 18.553 26.592C19.0531 26.263 19.4377 25.7857 19.6529 25.2271C19.8681 24.6685 19.9032 24.0565 19.7531 23.477L19.688 23.157L19.366 23.228C17.8277 23.5774 16.2305 23.5757 14.693 23.223L14.381 23.15L14.303 23.457ZM11.4561 9.71303C11.0731 10.288 10.673 10.913 10.162 11.741C10.0719 11.9331 9.93309 12.0983 9.75943 12.2202C9.58577 12.3422 9.38331 12.4165 9.17203 12.436C9.03212 12.4443 8.89545 12.4817 8.77078 12.5457C8.64612 12.6098 8.53622 12.6991 8.44803 12.808C8.37597 12.9018 8.3251 13.0101 8.29886 13.1254C8.27262 13.2407 8.27166 13.3603 8.29605 13.476C8.33623 13.6809 8.42209 13.8741 8.54727 14.0411C8.67245 14.2082 8.83375 14.3449 9.01908 14.441L9.12601 14.482C9.82101 14.747 9.82107 14.747 9.83707 15.482C9.8374 16.5128 10.1903 17.5125 10.8371 18.315C11.4051 19.015 12.0011 19.7 12.5771 20.367L13.106 20.98C13.5016 21.4792 14.0046 21.8828 14.5777 22.1608C15.1507 22.4389 15.7791 22.5842 16.416 22.586C16.5938 22.5857 16.7714 22.5757 16.948 22.556C17.5724 22.6478 18.2094 22.5982 18.812 22.4109C19.4147 22.2237 19.9677 21.9035 20.4301 21.474C21.2601 20.62 22.0901 19.704 22.8951 18.751C23.7574 17.7992 24.2328 16.5594 24.2281 15.275C24.2231 14.707 24.223 14.707 24.955 14.46C25.1442 14.3759 25.313 14.252 25.4499 14.0967C25.5867 13.9413 25.6885 13.7583 25.7481 13.56C25.7819 13.4449 25.7904 13.3239 25.7731 13.2051C25.7558 13.0864 25.7132 12.9728 25.648 12.872C25.5693 12.7573 25.4677 12.6603 25.3494 12.5871C25.2311 12.5139 25.0989 12.4662 24.9611 12.447C24.6795 12.4256 24.4167 12.2972 24.2268 12.0882C24.037 11.8792 23.9343 11.6054 23.94 11.323C23.9222 11.0932 23.8563 10.8698 23.7462 10.6672C23.6362 10.4647 23.4848 10.2877 23.3017 10.1477C23.1186 10.0077 22.9079 9.90798 22.6836 9.85496C22.4593 9.80194 22.2264 9.79685 22 9.84003L21.7321 9.86603C21.3011 9.90703 20.87 9.95003 20.438 9.97603C18.5899 10.1748 16.7263 9.78567 15.1121 8.86403C14.6832 8.59621 14.1886 8.45191 13.683 8.44703C13.2354 8.45437 12.7969 8.57416 12.4077 8.79539C12.0186 9.01662 11.6913 9.33218 11.4561 9.71303ZM12.4561 2.43203C11.1953 3.32463 10.2125 4.55559 9.62137 5.98281C9.0302 7.41003 8.85462 8.97533 9.11502 10.498L9.23306 11.356L10.015 10.156C10.222 9.83603 10.4231 9.52504 10.6291 9.21904C11.1469 8.40644 11.9618 7.82848 12.8999 7.60857C13.8381 7.38866 14.8251 7.54422 15.6501 8.04203C16.3282 8.44488 17.0734 8.72199 17.85 8.86003C19.0193 9.01522 20.2021 9.0407 21.377 8.93603C21.9211 8.81625 22.4871 8.84132 23.0185 9.00872C23.5498 9.17613 24.0279 9.48002 24.4051 9.89003L24.888 10.442L24.97 9.71704C25.1408 8.19026 24.8577 6.64702 24.1558 5.28042C23.4539 3.91383 22.3646 2.78459 21.0241 2.03403C19.7951 1.33216 18.4082 0.953675 16.9931 0.934033C15.3612 0.953328 13.7751 1.47654 12.4521 2.43203H12.4561Z" fill="black"/>
</svg>
