<svg width="19" height="37" viewBox="0 0 19 37" fill="none" xmlns="http://www.w3.org/2000/svg">
<path d="M9.02539 7.77905H11.4904" stroke="#394553" stroke-width="1.22" stroke-miterlimit="10"/>
<mask id="mask0_9_5849" style="mask-type:luminance" maskUnits="userSpaceOnUse" x="0" y="0" width="19" height="37">
<path d="M19 0H0V37H19V0Z" fill="white"/>
</mask>
<g mask="url(#mask0_9_5849)">
<path d="M4 14.061C4.26053 13.3213 4.66511 12.6406 5.19034 12.0582C5.71558 11.4758 6.35104 11.0033 7.06 10.668V1.75701C7.06 1.45439 7.18001 1.16412 7.39372 0.949849C7.60742 0.735581 7.89738 0.614808 8.2 0.614014H10.623C10.9248 0.616124 11.2136 0.737447 11.4264 0.951544C11.6392 1.16564 11.7587 1.45516 11.759 1.75701V10.668C12.7824 11.1555 13.6461 11.9241 14.2492 12.8839C14.8523 13.8438 15.1699 14.9554 15.165 16.089" stroke="#394553" stroke-width="1.224" stroke-miterlimit="10"/>
<path d="M6.25348 20.076C6.25308 20.1484 6.23126 20.219 6.19076 20.2789C6.15026 20.3388 6.0929 20.3854 6.02593 20.4128C5.95896 20.4402 5.88538 20.4471 5.81449 20.4327C5.7436 20.4182 5.67857 20.3831 5.62763 20.3317C5.57668 20.2804 5.5421 20.2151 5.52825 20.1441C5.5144 20.0731 5.52191 19.9995 5.54982 19.9328C5.57774 19.8661 5.6248 19.8091 5.68508 19.7691C5.74535 19.7291 5.81613 19.7078 5.88848 19.708C5.93663 19.7081 5.98428 19.7178 6.0287 19.7363C6.07312 19.7549 6.11344 19.7821 6.14734 19.8163C6.18125 19.8505 6.20808 19.891 6.22629 19.9356C6.2445 19.9801 6.25374 20.0279 6.25348 20.076Z" fill="#076CFF"/>
<path d="M6.25348 20.076C6.25308 20.1484 6.23126 20.219 6.19076 20.2789C6.15026 20.3388 6.0929 20.3854 6.02593 20.4128C5.95896 20.4402 5.88538 20.4471 5.81449 20.4327C5.7436 20.4182 5.67857 20.3831 5.62763 20.3317C5.57668 20.2804 5.5421 20.2151 5.52825 20.1441C5.5144 20.0731 5.52191 19.9995 5.54982 19.9328C5.57774 19.8661 5.6248 19.8091 5.68508 19.7691C5.74535 19.7291 5.81613 19.7078 5.88848 19.708C5.93663 19.7081 5.98428 19.7178 6.0287 19.7363C6.07312 19.7549 6.11344 19.7821 6.14734 19.8163C6.18125 19.8505 6.20808 19.891 6.22629 19.9356C6.2445 19.9801 6.25374 20.0279 6.25348 20.076Z" stroke="#394553" stroke-width="1.224" stroke-miterlimit="10"/>
<path d="M13.4 20.076C13.3996 20.1484 13.3777 20.219 13.3372 20.2789C13.2967 20.3388 13.2394 20.3854 13.1724 20.4128C13.1054 20.4402 13.0319 20.4471 12.961 20.4327C12.8901 20.4182 12.8251 20.3831 12.7741 20.3317C12.7232 20.2804 12.6886 20.2151 12.6747 20.1441C12.6609 20.0731 12.6684 19.9995 12.6963 19.9328C12.7242 19.8661 12.7713 19.8091 12.8316 19.7691C12.8918 19.7291 12.9626 19.7078 13.035 19.708C13.0831 19.7081 13.1308 19.7178 13.1752 19.7363C13.2196 19.7549 13.2599 19.7821 13.2938 19.8163C13.3277 19.8505 13.3546 19.891 13.3728 19.9356C13.391 19.9801 13.4002 20.0279 13.4 20.076Z" fill="#076CFF"/>
<path d="M13.4 20.076C13.3996 20.1484 13.3777 20.219 13.3372 20.2789C13.2967 20.3388 13.2394 20.3854 13.1724 20.4128C13.1054 20.4402 13.0319 20.4471 12.961 20.4327C12.8901 20.4182 12.8251 20.3831 12.7741 20.3317C12.7232 20.2804 12.6886 20.2151 12.6747 20.1441C12.6609 20.0731 12.6684 19.9995 12.6963 19.9328C12.7242 19.8661 12.7713 19.8091 12.8316 19.7691C12.8918 19.7291 12.9626 19.7078 13.035 19.708C13.0831 19.7081 13.1308 19.7178 13.1752 19.7363C13.2196 19.7549 13.2599 19.7821 13.2938 19.8163C13.3277 19.8505 13.3546 19.891 13.3728 19.9356C13.391 19.9801 13.4002 20.0279 13.4 20.076Z" stroke="#394553" stroke-width="1.224" stroke-miterlimit="10"/>
<path d="M13.1 20.1281C13.1297 21.115 12.7679 22.0735 12.0934 22.7946C11.419 23.5157 10.4867 23.9408 9.50002 23.9771C8.51422 23.9395 7.5832 23.5139 6.90983 22.7929C6.23645 22.072 5.87528 21.1141 5.90502 20.1281" stroke="#394553" stroke-width="1.224" stroke-miterlimit="10"/>
<path d="M18.3904 16.1381H0.610352V36.3861H18.3904V16.1381Z" stroke="#394553" stroke-width="1.224" stroke-miterlimit="10"/>
</g>
</svg>
