<svg width="48" height="48" viewBox="0 0 48 48" fill="none" xmlns="http://www.w3.org/2000/svg">
<mask id="mask0_9_9235" style="mask-type:luminance" maskUnits="userSpaceOnUse" x="0" y="0" width="48" height="48">
<path d="M48 0H0V48H48V0Z" fill="white"/>
</mask>
<g mask="url(#mask0_9_9235)">
<path d="M48.0001 24C48.0307 23.0793 47.8264 22.166 47.4065 21.346C46.9867 20.526 46.365 19.8264 45.6001 19.313C45.0629 18.9875 44.4657 18.7733 43.8441 18.683C44.3373 18.294 44.7471 17.8097 45.0491 17.259C45.4551 16.4321 45.6438 15.5154 45.5977 14.5954C45.5515 13.6753 45.2718 12.7821 44.7851 12C44.3514 11.1873 43.718 10.4984 42.9446 9.99805C42.1712 9.49771 41.2831 9.20243 40.3641 9.14002C39.7364 9.12668 39.1124 9.23958 38.5291 9.47202C38.7618 8.88882 38.8747 8.26476 38.8611 7.63702C38.7988 6.71768 38.5035 5.82933 38.003 5.05569C37.5024 4.28204 36.8132 3.64859 36.0001 3.21501C35.2181 2.72805 34.3251 2.44813 33.405 2.40159C32.485 2.35506 31.5682 2.54344 30.7411 2.94901C30.1905 3.25123 29.7063 3.66101 29.3171 4.15402C29.2266 3.53308 29.0124 2.93663 28.6871 2.40002C28.1738 1.63505 27.4742 1.01335 26.6542 0.593469C25.8342 0.173592 24.9208 -0.0306391 24.0001 1.50912e-05C23.0794 -0.0306391 22.166 0.173592 21.346 0.593469C20.526 1.01335 19.8264 1.63505 19.3131 2.40002C18.9874 2.93685 18.7728 3.53366 18.6821 4.15502C18.293 3.66199 17.8087 3.25221 17.2581 2.95002C16.4312 2.54448 15.5147 2.35602 14.5948 2.40238C13.675 2.44874 12.7821 2.72839 12.0001 3.21501C11.1872 3.64871 10.4981 4.28223 9.99778 5.05586C9.49742 5.82949 9.20226 6.71777 9.1401 7.63702C9.12652 8.26476 9.23943 8.88882 9.4721 9.47202C8.88885 9.23956 8.26483 9.12666 7.6371 9.14002C6.71789 9.20227 5.82964 9.49747 5.05602 9.99782C4.28241 10.4982 3.64888 11.1872 3.2151 12C2.72805 12.782 2.44807 13.675 2.40154 14.5951C2.355 15.5151 2.54344 16.4319 2.9491 17.259C3.25114 17.8097 3.66095 18.294 4.1541 18.683C3.53247 18.7733 2.93532 18.9875 2.3981 19.313C1.63357 19.8266 1.01232 20.5264 0.592804 21.3463C0.173292 22.1663 -0.0306745 23.0795 0.00010201 24C-0.0306292 24.9209 0.17356 25.8344 0.593437 26.6546C1.01331 27.4748 1.63506 28.1745 2.4001 28.688C2.93698 29.0135 3.5338 29.2277 4.1551 29.318C3.66387 29.7076 3.25581 30.1918 2.9551 30.742C2.54864 31.5685 2.35923 32.4848 2.40471 33.4047C2.4502 34.3245 2.72908 35.2177 3.2151 36C3.64886 36.8126 4.28225 37.5015 5.05567 38.0019C5.82908 38.5022 6.71708 38.7975 7.6361 38.86C8.26383 38.8734 8.88785 38.7605 9.4711 38.528C9.23843 39.1112 9.12552 39.7353 9.1391 40.363C9.20127 41.2824 9.49654 42.1708 9.99709 42.9444C10.4976 43.7181 11.187 44.3515 12.0001 44.785C12.7819 45.272 13.6747 45.552 14.5946 45.5987C15.5144 45.6454 16.431 45.4573 17.2581 45.052C17.8088 44.75 18.2931 44.3402 18.6821 43.847C18.7728 44.4684 18.9874 45.0652 19.3131 45.602C19.8265 46.3667 20.5262 46.9882 21.3462 47.4077C22.1662 47.8272 23.0795 48.0311 24.0001 48C24.9209 48.0309 25.8343 47.8267 26.6543 47.4068C27.4743 46.9869 28.1739 46.3651 28.6871 45.6C29.0128 45.0632 29.2274 44.4664 29.3181 43.845C29.7071 44.3382 30.1914 44.748 30.7421 45.05C31.5771 45.4252 32.4893 45.5966 33.4035 45.5503C34.3178 45.5039 35.2079 45.2409 36.0006 44.7832C36.7933 44.3254 37.466 43.6858 37.9631 42.9172C38.4603 42.1485 38.7677 41.2728 38.8601 40.362C38.8737 39.7343 38.7608 39.1102 38.5281 38.527C39.1114 38.7594 39.7354 38.8723 40.3631 38.859C41.2739 38.7665 42.1497 38.459 42.9183 37.9617C43.6869 37.4645 44.3264 36.7917 44.7841 35.9989C45.2418 35.206 45.5046 34.3158 45.5509 33.4015C45.5971 32.4872 45.4255 31.575 45.0501 30.74C44.7494 30.1898 44.3413 29.7056 43.8501 29.316C44.4714 29.2257 45.0682 29.0115 45.6051 28.686C46.3689 28.1721 46.9895 27.4724 47.4085 26.6527C47.8274 25.8329 48.031 24.9201 48.0001 24Z" fill="black"/>
</g>
<path d="M19.3134 45.6C18.9877 45.0631 18.7732 44.4663 18.6824 43.845C18.2933 44.3381 17.809 44.7479 17.2584 45.05C16.4234 45.4255 15.5112 45.5971 14.5969 45.5508C13.6825 45.5045 12.7923 45.2416 11.9995 44.7838C11.2067 44.326 10.534 43.6863 10.0369 42.9175C9.53983 42.1487 9.23257 41.2729 9.14038 40.3621C9.12632 39.7344 9.23889 39.1102 9.47137 38.527C8.88816 38.7596 8.2641 38.8725 7.63635 38.859C6.72557 38.7665 5.84981 38.4589 5.08118 37.9617C4.31254 37.4644 3.67303 36.7916 3.21533 35.9988C2.75764 35.2059 2.49485 34.3158 2.44861 33.4015C2.40237 32.4872 2.57397 31.575 2.94934 30.74C3.13177 30.7574 3.3157 30.7304 3.48541 30.6613C3.65513 30.5921 3.80562 30.4829 3.92395 30.343C4.04228 30.2031 4.125 30.0366 4.16498 29.8578C4.20496 29.6789 4.20105 29.493 4.15356 29.316C4.10608 29.139 4.0164 28.9762 3.89227 28.8414C3.76815 28.7066 3.61327 28.6038 3.4408 28.5419C3.26832 28.48 3.08338 28.4607 2.90186 28.4858C2.72033 28.5109 2.54759 28.5796 2.39838 28.686C1.65599 28.1506 1.05143 27.4463 0.63446 26.6315C0.217491 25.8166 0 24.9144 0 23.999C0 23.0837 0.217491 22.1813 0.63446 21.3665C1.05143 20.5516 1.65599 19.8475 2.39838 19.312C2.54759 19.4184 2.72033 19.4871 2.90186 19.5122C3.08338 19.5373 3.26832 19.518 3.4408 19.4561C3.61327 19.3941 3.76815 19.2914 3.89227 19.1566C4.0164 19.0218 4.10608 18.8589 4.15356 18.6819C4.20105 18.5049 4.20496 18.3191 4.16498 18.1403C4.125 17.9614 4.04228 17.7948 3.92395 17.6549C3.80562 17.515 3.65513 17.4058 3.48541 17.3367C3.3157 17.2675 3.13177 17.2406 2.94934 17.2581C2.57397 16.4231 2.40237 15.5109 2.44861 14.5966C2.49485 13.6823 2.75764 12.792 3.21533 11.9991C3.67303 11.2063 4.31254 10.5335 5.08118 10.0363C5.84981 9.53899 6.72557 9.23153 7.63635 9.13904C8.26409 9.12562 8.88813 9.23844 9.47137 9.47095C9.23889 8.88773 9.12632 8.26368 9.14038 7.63599C9.23257 6.72515 9.53983 5.84922 10.0369 5.08044C10.534 4.31167 11.2067 3.67206 11.9995 3.21423C12.7923 2.75641 13.6825 2.49356 14.5969 2.44727C15.5112 2.40098 16.4234 2.57259 17.2584 2.948C17.809 3.25015 18.2933 3.65989 18.6824 4.15295C18.7731 3.53162 18.9877 2.93482 19.3134 2.39795C19.8486 1.65538 20.5526 1.05065 21.3674 0.633545C22.1822 0.216437 23.0845 -0.00109863 23.9999 -0.00109863C24.9152 -0.00109863 25.8175 0.216437 26.6323 0.633545C27.4471 1.05065 28.1511 1.65538 28.6863 2.39795C29.0125 2.93461 29.2271 3.5315 29.3174 4.15295C29.7068 3.66018 30.191 3.25049 30.7414 2.948C31.5764 2.57259 32.4886 2.40098 33.4029 2.44727C34.3172 2.49356 35.2075 2.75641 36.0002 3.21423C36.793 3.67206 37.4657 4.31167 37.9628 5.08044C38.4599 5.84922 38.7672 6.72515 38.8594 7.63599C38.8734 8.26368 38.7609 8.88773 38.5284 9.47095C39.1116 9.23852 39.7356 9.12571 40.3633 9.13904C41.2742 9.23132 42.1502 9.53867 42.9189 10.0359C43.6877 10.5331 44.3273 11.2059 44.785 11.9988C45.2428 12.7917 45.5055 13.6821 45.5516 14.5964C45.5978 15.5108 45.426 16.4231 45.0504 17.2581C44.8679 17.2406 44.684 17.2675 44.5143 17.3367C44.3446 17.4058 44.1941 17.515 44.0758 17.6549C43.9575 17.7948 43.8748 17.9614 43.8348 18.1403C43.7948 18.3191 43.7987 18.5049 43.8462 18.6819C43.8937 18.8589 43.9833 19.0218 44.1074 19.1566C44.2315 19.2914 44.3865 19.3941 44.559 19.4561C44.7314 19.518 44.9164 19.5373 45.0979 19.5122C45.2794 19.4871 45.4522 19.4184 45.6014 19.312C46.3438 19.8475 46.9483 20.5516 47.3653 21.3665C47.7823 22.1813 47.9997 23.0837 47.9997 23.999C47.9997 24.9144 47.7823 25.8166 47.3653 26.6315C46.9483 27.4463 46.3438 28.1506 45.6014 28.686C45.4522 28.5796 45.2794 28.5109 45.0979 28.4858C44.9164 28.4607 44.7314 28.48 44.559 28.5419C44.3865 28.6038 44.2315 28.7066 44.1074 28.8414C43.9833 28.9762 43.8937 29.139 43.8462 29.316C43.7987 29.493 43.7948 29.6789 43.8348 29.8578C43.8748 30.0366 43.9575 30.2031 44.0758 30.343C44.1941 30.4829 44.3446 30.5921 44.5143 30.6613C44.684 30.7304 44.8679 30.7574 45.0504 30.74C45.426 31.5749 45.5978 32.4872 45.5516 33.4016C45.5055 34.316 45.2428 35.2062 44.785 35.9991C44.3273 36.792 43.6877 37.4648 42.9189 37.962C42.1502 38.4593 41.2742 38.7667 40.3633 38.859C39.7356 38.8724 39.1116 38.7595 38.5284 38.527C38.7609 39.1102 38.8734 39.7344 38.8594 40.3621C38.7672 41.2729 38.4599 42.1487 37.9628 42.9175C37.4657 43.6863 36.793 44.326 36.0002 44.7838C35.2075 45.2416 34.3172 45.5045 33.4029 45.5508C32.4886 45.5971 31.5764 45.4255 30.7414 45.05C30.191 44.7476 29.7068 44.3377 29.3174 43.845C29.2271 44.4664 29.0124 45.0633 28.6863 45.6C28.151 46.3424 27.4469 46.9469 26.6321 47.3639C25.8174 47.7809 24.9152 47.9984 23.9999 47.9984C23.0846 47.9984 22.1824 47.7809 21.3676 47.3639C20.5528 46.9469 19.8487 46.3424 19.3134 45.6Z" fill="#E21836"/>
</svg>
