<svg width="50" height="50" viewBox="0 0 50 50" fill="none" xmlns="http://www.w3.org/2000/svg">
<mask id="mask0_9_9277" style="mask-type:luminance" maskUnits="userSpaceOnUse" x="0" y="0" width="50" height="50">
<path d="M0.046875 25C0.046875 29.9352 1.51034 34.7596 4.25221 38.8631C6.99408 42.9666 10.8912 46.1649 15.4508 48.0536C20.0103 49.9422 25.0276 50.4363 29.868 49.4735C34.7084 48.5107 39.1546 46.1342 42.6443 42.6444C46.134 39.1547 48.5106 34.7085 49.4734 29.8681C50.4362 25.0277 49.9421 20.0105 48.0534 15.4509C46.1648 10.8913 42.9665 6.99421 38.863 4.25234C34.7595 1.51047 29.9351 0.0469971 24.9999 0.0469971C18.3819 0.0469971 12.035 2.67597 7.35544 7.35556C2.67584 12.0352 0.046875 18.382 0.046875 25Z" fill="white"/>
</mask>
<g mask="url(#mask0_9_9277)">
<path d="M64 -1H-14V16.333H64V-1Z" fill="black"/>
<path d="M64 16.333H-14V33.666H64V16.333Z" fill="#DC0000"/>
<path d="M64 33.667H-14V51H64V33.667Z" fill="#FECE00"/>
</g>
</svg>
