<svg width="18" height="17" viewBox="0 0 18 17" fill="none" xmlns="http://www.w3.org/2000/svg">
<mask id="mask0_9_5885" style="mask-type:luminance" maskUnits="userSpaceOnUse" x="0" y="0" width="18" height="17">
<path d="M18 0H0V17H18V0Z" fill="white"/>
</mask>
<g mask="url(#mask0_9_5885)">
<path d="M13.7412 10.431C14.1939 9.45773 14.4287 8.39739 14.4292 7.324C14.4365 6.36941 14.2556 5.42275 13.897 4.53806C13.5384 3.65336 13.009 2.84797 12.3391 2.16787C11.6692 1.48777 10.8719 0.946277 9.99277 0.574312C9.11361 0.202347 8.16979 0.00719544 7.2152 0C5.28724 0.0145325 3.444 0.794311 2.09094 2.16781C0.737881 3.54131 -0.0141733 5.39603 0.000202367 7.324C-0.00261683 8.40017 0.230827 9.46385 0.684053 10.4399C1.13728 11.416 1.79924 12.2807 2.6232 12.973C3.34342 13.5775 4.17507 14.0352 5.0712 14.32C6.14863 14.6584 7.2912 14.7351 8.40421 14.5438C9.51721 14.3525 10.5686 13.8987 11.4712 13.22C12.4453 12.4903 13.2234 11.5308 13.7362 10.427M7.2102 12.637C5.81212 12.6251 4.47587 12.059 3.49477 11.0629C2.51367 10.0668 1.96788 8.7221 1.9772 7.324C1.9714 6.63045 2.1023 5.94255 2.36242 5.2996C2.62255 4.65664 3.0068 4.07124 3.49322 3.57683C3.97964 3.08242 4.55871 2.68869 5.19734 2.41813C5.83597 2.14758 6.52165 2.00549 7.2152 2C8.61521 2.01083 9.9536 2.57726 10.9361 3.57471C11.9185 4.57217 12.4646 5.91899 12.4542 7.319C12.4593 8.01212 12.3279 8.69947 12.0674 9.34179C11.8069 9.98412 11.4224 10.5688 10.9359 11.0626C10.4494 11.5563 9.87046 11.9494 9.23206 12.2193C8.59365 12.4893 7.90832 12.6309 7.2152 12.636" fill="black"/>
<path d="M17.4243 13.864L14.8693 11.483C14.2993 12.55 13.5165 13.4886 12.5693 14.241L15.0213 16.525C15.1922 16.6852 15.3934 16.8095 15.613 16.8909C15.8326 16.9722 16.0663 17.0089 16.3003 16.9988C16.5342 16.9886 16.7638 16.9318 16.9756 16.8318C17.1873 16.7317 17.3769 16.5904 17.5333 16.416C17.8529 16.0612 18.0207 15.5953 18.0007 15.1182C17.9807 14.6411 17.7745 14.1908 17.4263 13.864" fill="black"/>
</g>
<path d="M15.0195 16.525L12.5665 14.241C13.5134 13.4883 14.2961 12.5497 14.8665 11.483L17.4205 13.864C17.7686 14.1906 17.9748 14.6407 17.9948 15.1176C18.0148 15.5946 17.847 16.0603 17.5275 16.415C17.3712 16.5894 17.1816 16.7308 16.9699 16.831C16.7582 16.9311 16.5287 16.988 16.2947 16.9982C16.0607 17.0085 15.827 16.9719 15.6073 16.8906C15.3877 16.8094 15.1865 16.6851 15.0155 16.525H15.0195ZM5.07155 14.32C4.17557 14.0353 3.34395 13.578 2.62355 12.974C1.79951 12.2816 1.13744 11.4167 0.684216 10.4404C0.230989 9.46416 -0.00239704 8.40031 0.000500179 7.32398C-0.0107384 6.36941 0.167515 5.42211 0.525036 4.53695C0.882558 3.65179 1.41222 2.84638 2.08326 2.16739C2.75431 1.4884 3.55345 0.949331 4.43434 0.581413C5.31523 0.213496 6.26034 0.0240479 7.21498 0.0240479C8.16961 0.0240479 9.11473 0.213496 9.99562 0.581413C10.8765 0.949331 11.6756 1.4884 12.3467 2.16739C13.0177 2.84638 13.5474 3.65179 13.9049 4.53695C14.2624 5.42211 14.4407 6.36941 14.4295 7.32398C14.4288 8.46911 14.1617 9.59838 13.6492 10.6224C13.1366 11.6464 12.3927 12.5371 11.4765 13.224C10.5737 13.9024 9.52238 14.356 8.40944 14.5473C7.29649 14.7386 6.15402 14.6621 5.07655 14.324L5.07155 14.32ZM1.97145 7.31998C1.98722 8.35265 2.30786 9.35762 2.89308 10.2086C3.47829 11.0596 4.30199 11.7186 5.26063 12.1029C6.21927 12.4871 7.27017 12.5795 8.28114 12.3683C9.29211 12.1571 10.2181 11.6519 10.9428 10.916C11.6674 10.1801 12.1584 9.24647 12.354 8.23238C12.5497 7.2183 12.4412 6.169 12.0422 5.21637C11.6433 4.26374 10.9718 3.45027 10.1119 2.87818C9.25209 2.30609 8.24227 2.00091 7.20948 2.00098C6.51641 2.00687 5.8313 2.14923 5.19325 2.41994C4.5552 2.69064 3.97671 3.08439 3.49086 3.5787C3.005 4.073 2.62125 4.65818 2.36158 5.3008C2.10192 5.94343 1.97148 6.63091 1.97755 7.32398L1.97145 7.31998Z" fill="#040404"/>
</svg>
