<svg width="31" height="30" viewBox="0 0 31 30" fill="none" xmlns="http://www.w3.org/2000/svg">
<mask id="mask0_9_5866" style="mask-type:luminance" maskUnits="userSpaceOnUse" x="0" y="0" width="31" height="30">
<path d="M31 0H0V30H31V0Z" fill="white"/>
</mask>
<g mask="url(#mask0_9_5866)">
<path d="M0.227675 6.50004C-0.173646 8.63095 -0.0137431 10.8296 0.691675 12.88C1.53635 15.4642 2.81755 17.8846 4.47968 20.036C7.03165 23.5328 10.0688 26.6481 13.4997 29.288C14.071 29.7504 14.7841 30.002 15.5191 30.0006C16.2541 29.9991 16.9662 29.7447 17.5357 29.28C19.3665 27.8573 21.0898 26.3014 22.6917 24.625C25.3609 21.952 27.5887 18.872 29.2917 15.5C30.6635 12.9124 31.2196 9.96989 30.8867 7.06004C30.7799 5.96567 30.4355 4.90779 29.8776 3.96026C29.3198 3.01273 28.5618 2.19837 27.6567 1.57404C26.4146 0.728927 24.9848 0.200066 23.4918 0.0334526C21.9987 -0.133161 20.4875 0.0675198 19.0897 0.61804C17.8611 1.02142 16.7437 1.70629 15.8267 2.61804L15.5427 2.89704L15.2427 2.64004C15.1427 2.55504 15.0477 2.47104 14.9557 2.39004C14.7787 2.23304 14.6117 2.08504 14.4407 1.96104C12.7738 0.705214 10.7467 0.0196999 8.65967 0.00603998C7.74741 0.0103733 6.83965 0.134433 5.95968 0.37504C4.50447 0.712291 3.18244 1.47474 2.16175 2.56541C1.14106 3.65608 0.467826 5.02569 0.227675 6.50004ZM6.59168 1.52704C7.81181 1.23369 9.08169 1.21362 10.3105 1.46826C11.5393 1.72291 12.6966 2.24597 13.6997 3.00004C14.3416 3.49069 14.8774 4.10644 15.2747 4.81004C15.3517 4.93604 15.4307 5.06104 15.5137 5.18804C15.5607 5.11404 15.6067 5.04004 15.6497 4.96504C16.1336 4.10776 16.7953 3.36394 17.5904 2.78354C18.3856 2.20315 19.2957 1.79961 20.2597 1.60004C22.2492 1.02726 24.3821 1.23283 26.2257 2.17504C27.2306 2.6876 28.0818 3.45738 28.6924 4.40597C29.303 5.35455 29.6513 6.44804 29.7017 7.57504C29.8874 10.3555 29.2488 13.1289 27.8657 15.548C26.093 18.8382 23.8093 21.8261 21.0997 24.4C20.0397 25.437 18.8997 26.418 17.8067 27.367C17.498 27.6337 17.1897 27.9004 16.8817 28.167C16.5089 28.5122 16.0225 28.7086 15.5147 28.719C15.0299 28.7079 14.5635 28.5315 14.1927 28.219C10.954 25.6972 8.07006 22.7503 5.61868 19.458C4.16733 17.5859 3.0001 15.5099 2.15468 13.297C1.47965 11.554 1.18803 9.68592 1.29968 7.82004C1.33334 6.32404 1.87722 4.88447 2.84115 3.73993C3.80509 2.5954 5.1312 1.81463 6.59968 1.52704" fill="black"/>
</g>
</svg>
