<svg width="20" height="20" viewBox="0 0 20 20" fill="none" xmlns="http://www.w3.org/2000/svg">
<path d="M2.27476 10.8986C1.9773 10.8986 1.70941 10.8958 1.44152 10.8992C0.806212 10.9077 0.376796 10.596 0.12654 10.0318C-0.119166 9.4784 -0.00143173 8.89826 0.430829 8.466C3.00562 5.89064 5.57928 3.31414 8.15862 0.742765C9.14429 -0.239489 10.8347 -0.250864 11.8192 0.728546C14.4008 3.29708 16.9739 5.87472 19.5481 8.45122C19.9946 8.89826 20.122 9.49433 19.878 10.0352C19.6198 10.6091 19.1625 10.8958 18.5306 10.898C18.2695 10.8992 18.009 10.898 17.7184 10.898C17.7184 11.0038 17.7184 11.0863 17.7184 11.1688C17.7184 13.3267 17.7212 15.4845 17.7173 17.6424C17.715 18.8016 17.0086 19.6974 15.9143 19.9351C15.7289 19.9755 15.5338 19.9886 15.3432 19.9892C11.7788 19.992 8.21436 19.9926 4.64992 19.9909C3.43674 19.9903 2.50966 19.2372 2.30604 18.0878C2.27533 17.9149 2.2759 17.7346 2.2759 17.5577C2.27419 15.4356 2.27476 13.313 2.27476 11.1909C2.27476 11.1062 2.27476 11.022 2.27476 10.8992V10.8986ZM12.7235 19.0757C12.8202 19.0757 12.8902 19.0757 12.9601 19.0757C13.7484 19.0757 14.5362 19.0769 15.3245 19.0757C16.2641 19.0746 16.8135 18.5212 16.8135 17.5765C16.8135 15.2343 16.8135 12.8921 16.8135 10.5505C16.8135 10.1569 16.9762 9.99598 17.3703 9.99484C17.7394 9.9937 18.1086 9.99484 18.4777 9.99484C18.786 9.99484 18.952 9.90099 19.0402 9.67064C19.1335 9.42778 19.051 9.23611 18.8736 9.05866C16.3414 6.53107 13.8127 4.00064 11.2811 1.47249C10.5218 0.714327 9.46848 0.719446 8.70577 1.47988C7.96638 2.21643 7.22983 2.95526 6.49157 3.69294C4.70452 5.47943 2.91803 7.26705 1.12813 9.05069C0.944422 9.23384 0.852851 9.42835 0.956366 9.67918C1.06045 9.93228 1.26577 10.0045 1.52456 9.99768C1.87208 9.98858 2.22016 9.99541 2.56824 9.99541C3.03577 9.99541 3.1808 10.1393 3.1808 10.6028C3.1808 12.9308 3.19616 15.2587 3.17284 17.5861C3.16431 18.4086 3.76208 19.1172 4.67949 19.0831C5.45927 19.0535 6.24132 19.0769 7.02223 19.0769H7.27135C7.27135 18.9779 7.27135 18.9017 7.27135 18.8255C7.27135 17.271 7.27021 15.7172 7.27135 14.1627C7.27192 13.2976 7.84864 12.7221 8.71316 12.7209C9.55778 12.7198 10.403 12.7204 11.2476 12.7209C12.157 12.7215 12.7235 13.2851 12.7235 14.1929C12.7247 15.7331 12.7235 17.2733 12.7235 18.8129V19.0769V19.0757ZM11.8067 19.0678C11.8118 19.0052 11.8175 18.9637 11.8175 18.9227C11.8175 17.3342 11.8197 15.7462 11.8169 14.1576C11.8163 13.7999 11.6372 13.627 11.2732 13.6258C10.4359 13.623 9.5993 13.6241 8.76208 13.6253C8.33721 13.6258 8.17625 13.7902 8.17568 14.2225C8.17511 15.761 8.17568 17.3 8.17568 18.8385C8.17568 18.9131 8.18194 18.9876 8.18592 19.0683H11.8067V19.0678Z" fill="black"/>
</svg>
