<svg width="29" height="13" viewBox="0 0 29 13" fill="none" xmlns="http://www.w3.org/2000/svg">
<mask id="mask0_9_5920" style="mask-type:luminance" maskUnits="userSpaceOnUse" x="0" y="0" width="29" height="13">
<path d="M29 0H0V13H29V0Z" fill="white"/>
</mask>
<g mask="url(#mask0_9_5920)">
<path d="M22.0359 2.94497H24.8659C24.8914 2.94466 24.9166 2.95061 24.9393 2.96229C24.962 2.97397 24.9814 2.99103 24.9959 3.01197L26.3649 5.02497C26.3803 5.04784 26.3891 5.07452 26.3902 5.10206C26.3913 5.12959 26.3848 5.1569 26.3713 5.18094C26.3578 5.20498 26.3379 5.22481 26.3139 5.23824C26.2898 5.25166 26.2625 5.25814 26.235 5.25697H21.6889C21.6669 5.25752 21.6449 5.25322 21.6247 5.24436C21.6044 5.23551 21.5864 5.22232 21.5718 5.20573C21.5572 5.18913 21.5464 5.16954 21.5402 5.14833C21.534 5.12712 21.5326 5.10481 21.5359 5.08297L21.8829 3.06997C21.8896 3.03441 21.9086 3.00234 21.9366 2.97946C21.9646 2.95658 21.9998 2.94436 22.0359 2.94497Z" fill="#231F20"/>
<path d="M24.26 8.90899C23.7531 8.76154 23.2087 8.81717 22.7421 9.06411C22.2754 9.31105 21.9232 9.72991 21.76 10.232C21.6675 10.473 21.6243 10.7301 21.6329 10.9881C21.6416 11.246 21.7019 11.4997 21.8103 11.7339C21.9188 11.9682 22.0732 12.1783 22.2643 12.3518C22.4554 12.5253 22.6794 12.6586 22.923 12.744C23.43 12.8914 23.9744 12.8358 24.441 12.5889C24.9076 12.3419 25.2598 11.9231 25.423 11.421C25.5156 11.18 25.5588 10.9229 25.5502 10.6649C25.5415 10.4069 25.4812 10.1533 25.3727 9.91906C25.2643 9.68481 25.1099 9.47472 24.9188 9.30121C24.7277 9.12771 24.5037 8.99434 24.26 8.90899ZM24.486 11.117C24.4062 11.3621 24.2341 11.5665 24.0063 11.6871C23.7784 11.8076 23.5126 11.8349 23.265 11.763C23.146 11.7213 23.0366 11.6562 22.9432 11.5714C22.8499 11.4867 22.7745 11.3841 22.7215 11.2696C22.6685 11.1552 22.6391 11.0313 22.6349 10.9053C22.6307 10.7793 22.6518 10.6537 22.697 10.536C22.7769 10.2909 22.9489 10.0864 23.1768 9.96589C23.4047 9.84534 23.6705 9.81812 23.918 9.88999C24.037 9.93166 24.1465 9.9968 24.2398 10.0815C24.3332 10.1663 24.4086 10.2689 24.4616 10.3833C24.5146 10.4978 24.544 10.6217 24.5482 10.7477C24.5524 10.8737 24.5313 10.9993 24.486 11.117Z" fill="#231F20"/>
<path d="M28.7139 5.489L25.9459 1.879C25.8069 1.70096 25.629 1.55705 25.4259 1.45826C25.2228 1.35947 24.9997 1.30842 24.7739 1.309H21.4619C21.4508 0.982888 21.3287 0.670328 21.1159 0.423001C21.003 0.290221 20.8627 0.183601 20.7045 0.110553C20.5463 0.0375049 20.3741 -0.00021983 20.1999 9.6361e-07H8.28587C7.98184 0.00158166 7.68964 0.118031 7.46787 0.326001C7.25159 0.530032 7.10589 0.797621 7.05187 1.09L6.82187 2.27C6.81227 2.32343 6.81341 2.37824 6.82522 2.43122C6.83702 2.48421 6.85925 2.53432 6.89062 2.57862C6.92199 2.62293 6.96186 2.66054 7.00792 2.68928C7.05397 2.71802 7.10529 2.7373 7.15887 2.746C7.26722 2.76707 7.37952 2.74484 7.47168 2.68409C7.56384 2.62333 7.62853 2.52889 7.65187 2.421L7.88187 1.24C7.89083 1.13473 7.9353 1.03564 8.00798 0.958963C8.08066 0.882287 8.17723 0.832583 8.28187 0.818001H20.1999C20.2515 0.819846 20.3022 0.832765 20.3484 0.855883C20.3947 0.879001 20.4354 0.911779 20.4679 0.952001C20.5287 1.02576 20.5726 1.11205 20.5962 1.2047C20.6199 1.29735 20.6229 1.39408 20.6049 1.488L19.0999 10.259C19.0917 10.3657 19.0478 10.4665 18.9752 10.5451C18.9026 10.6236 18.8056 10.6754 18.6999 10.692H13.6479C13.6745 10.9665 13.6463 11.2435 13.5649 11.507H18.6999H21.7279C21.6487 11.2431 21.6242 10.9657 21.6559 10.692H19.8459C19.8849 10.5954 19.9134 10.4948 19.9309 10.392L21.3559 2.123H24.7749C24.8697 2.1229 24.9634 2.14447 25.0486 2.18607C25.1339 2.22766 25.2085 2.28818 25.2669 2.363L28.0349 5.974C28.0824 6.03517 28.117 6.10535 28.1366 6.1803C28.1562 6.25525 28.1604 6.33339 28.1489 6.41L27.5879 10.18C27.5636 10.3229 27.4891 10.4525 27.3779 10.5454C27.2666 10.6384 27.1258 10.6886 26.9809 10.687H25.5409C25.5453 10.9361 25.5053 11.1839 25.4229 11.419C25.4129 11.447 25.4029 11.475 25.3919 11.502H26.9819C27.3303 11.5025 27.6679 11.3808 27.9359 11.158C28.1988 10.9399 28.3724 10.6327 28.4239 10.295L28.9849 6.525C29.012 6.34297 29.002 6.15731 28.9555 5.97925C28.9089 5.80119 28.8267 5.63442 28.7139 5.489Z" fill="#231F20"/>
<path d="M9.80025 10.692H6.63425C6.58201 10.6901 6.53082 10.6769 6.4842 10.6532C6.43758 10.6296 6.39666 10.5961 6.36425 10.555C6.303 10.48 6.25928 10.3922 6.23627 10.2981C6.21326 10.204 6.21155 10.1059 6.23125 10.011L6.40025 9.13203C6.40953 9.07853 6.40806 9.02372 6.39593 8.97079C6.3838 8.91787 6.36126 8.86788 6.32961 8.82376C6.29796 8.77964 6.25785 8.74226 6.2116 8.71381C6.16535 8.68535 6.1139 8.66639 6.06025 8.65803C5.95177 8.63763 5.83962 8.66054 5.74783 8.72185C5.65605 8.78317 5.59194 8.87801 5.56925 8.98603L5.40025 9.86503C5.35928 10.0778 5.36638 10.2971 5.42106 10.5068C5.47573 10.7165 5.57659 10.9113 5.71625 11.077C5.82873 11.2115 5.9693 11.3196 6.12807 11.3939C6.28684 11.4682 6.45996 11.5068 6.63525 11.507H9.80025C9.7456 11.2381 9.7456 10.9609 9.80025 10.692Z" fill="#231F20"/>
<path d="M9.82197 3.08296H1.77097C1.71575 3.08569 1.66056 3.07718 1.60874 3.05794C1.55692 3.03869 1.50955 3.00912 1.4695 2.97101C1.42946 2.9329 1.39758 2.88705 1.37579 2.83624C1.35401 2.78544 1.34277 2.73074 1.34277 2.67546C1.34277 2.62018 1.35401 2.56547 1.37579 2.51467C1.39758 2.46386 1.42946 2.41801 1.4695 2.3799C1.50955 2.34179 1.55692 2.31222 1.60874 2.29298C1.66056 2.27373 1.71575 2.26522 1.77097 2.26796H9.82197C9.87718 2.26522 9.93237 2.27373 9.98419 2.29298C10.036 2.31222 10.0834 2.34179 10.1234 2.3799C10.1635 2.41801 10.1954 2.46386 10.2171 2.51467C10.2389 2.56547 10.2502 2.62018 10.2502 2.67546C10.2502 2.73074 10.2389 2.78544 10.2171 2.83624C10.1954 2.88705 10.1635 2.9329 10.1234 2.97101C10.0834 3.00912 10.036 3.03869 9.98419 3.05794C9.93237 3.07718 9.87718 3.08569 9.82197 3.08296Z" fill="#231F20"/>
<path d="M10.8223 4.50605H5.63229C5.57708 4.50879 5.52189 4.50028 5.47007 4.48103C5.41825 4.46179 5.37088 4.43221 5.33083 4.3941C5.29079 4.356 5.25891 4.31015 5.23712 4.25934C5.21534 4.20853 5.2041 4.15383 5.2041 4.09855C5.2041 4.04327 5.21534 3.98857 5.23712 3.93776C5.25891 3.88696 5.29079 3.84111 5.33083 3.803C5.37088 3.76489 5.41825 3.73532 5.47007 3.71607C5.52189 3.69683 5.57708 3.68832 5.63229 3.69105H10.8223C10.8775 3.68832 10.9327 3.69683 10.9845 3.71607C11.0363 3.73532 11.0837 3.76489 11.1238 3.803C11.1638 3.84111 11.1957 3.88696 11.2175 3.93776C11.2393 3.98857 11.2505 4.04327 11.2505 4.09855C11.2505 4.15383 11.2393 4.20853 11.2175 4.25934C11.1957 4.31015 11.1638 4.356 11.1238 4.3941C11.0837 4.43221 11.0363 4.46179 10.9845 4.48103C10.9327 4.50028 10.8775 4.50879 10.8223 4.50605Z" fill="#231F20"/>
<path d="M7.45933 9.00703H0.422333C0.367122 9.00976 0.31193 9.00125 0.260108 8.98201C0.208286 8.96276 0.160915 8.93319 0.120871 8.89508C0.0808267 8.85697 0.0489444 8.81112 0.0271593 8.76032C0.00537414 8.70951 -0.00585938 8.65481 -0.00585937 8.59953C-0.00585938 8.54425 0.00537414 8.48955 0.0271593 8.43874C0.0489444 8.38793 0.0808267 8.34208 0.120871 8.30398C0.160915 8.26587 0.208286 8.23629 0.260108 8.21705C0.31193 8.1978 0.367122 8.18929 0.422333 8.19203H7.45933C7.51455 8.18929 7.56974 8.1978 7.62156 8.21705C7.67338 8.23629 7.72075 8.26587 7.7608 8.30398C7.80084 8.34208 7.83272 8.38793 7.85451 8.43874C7.87629 8.48955 7.88753 8.54425 7.88753 8.59953C7.88753 8.65481 7.87629 8.70951 7.85451 8.76032C7.83272 8.81112 7.80084 8.85697 7.7608 8.89508C7.72075 8.93319 7.67338 8.96276 7.62156 8.98201C7.56974 9.00125 7.51455 9.00976 7.45933 9.00703Z" fill="#231F20"/>
<path d="M7.66458 6.03706H4.12058C4.06536 6.03979 4.01017 6.03128 3.95835 6.01204C3.90653 5.99279 3.85916 5.96322 3.81911 5.92511C3.77907 5.887 3.74719 5.84115 3.7254 5.79035C3.70362 5.73954 3.69238 5.68484 3.69238 5.62956C3.69238 5.57428 3.70362 5.51957 3.7254 5.46877C3.74719 5.41796 3.77907 5.37211 3.81911 5.334C3.85916 5.2959 3.90653 5.26632 3.95835 5.24708C4.01017 5.22783 4.06536 5.21932 4.12058 5.22206H7.66458C7.71979 5.21932 7.77498 5.22783 7.8268 5.24708C7.87862 5.26632 7.92599 5.2959 7.96604 5.334C8.00608 5.37211 8.03796 5.41796 8.05975 5.46877C8.08154 5.51957 8.09277 5.57428 8.09277 5.62956C8.09277 5.68484 8.08154 5.73954 8.05975 5.79035C8.03796 5.84115 8.00608 5.887 7.96604 5.92511C7.92599 5.96322 7.87862 5.99279 7.8268 6.01204C7.77498 6.03128 7.71979 6.03979 7.66458 6.03706Z" fill="#231F20"/>
<path d="M12.3419 4.1C12.3449 4.18463 12.3225 4.26823 12.2777 4.34006C12.2329 4.4119 12.1676 4.4687 12.0902 4.50318C12.0129 4.53766 11.927 4.54825 11.8436 4.53358C11.7602 4.51891 11.6831 4.47967 11.6221 4.42087C11.5612 4.36207 11.5192 4.28641 11.5015 4.20359C11.4839 4.12076 11.4914 4.03455 11.523 3.95602C11.5547 3.87748 11.6091 3.8102 11.6793 3.7628C11.7495 3.7154 11.8322 3.69005 11.9169 3.69C12.0276 3.68813 12.1345 3.73024 12.2142 3.80711C12.2939 3.88398 12.3398 3.98931 12.3419 4.1Z" fill="#231F20"/>
<path d="M9.96108 7.508H3.01608C2.96087 7.51074 2.90568 7.50223 2.85386 7.48298C2.80204 7.46374 2.75467 7.43417 2.71462 7.39606C2.67458 7.35795 2.64269 7.3121 2.62091 7.26129C2.59912 7.21049 2.58789 7.15578 2.58789 7.10051C2.58789 7.04523 2.59912 6.99052 2.62091 6.93972C2.64269 6.88891 2.67458 6.84306 2.71462 6.80495C2.75467 6.76684 2.80204 6.73727 2.85386 6.71803C2.90568 6.69878 2.96087 6.69027 3.01608 6.693H9.96108C10.0163 6.69027 10.0715 6.69878 10.1233 6.71803C10.1751 6.73727 10.2225 6.76684 10.2625 6.80495C10.3026 6.84306 10.3345 6.88891 10.3563 6.93972C10.378 6.99052 10.3893 7.04523 10.3893 7.10051C10.3893 7.15578 10.378 7.21049 10.3563 7.26129C10.3345 7.3121 10.3026 7.35795 10.2625 7.39606C10.2225 7.43417 10.1751 7.46374 10.1233 7.48298C10.0715 7.50223 10.0163 7.51074 9.96108 7.508Z" fill="#231F20"/>
<path d="M1.50026 7.10003C1.49728 7.0154 1.51964 6.93181 1.56448 6.85997C1.60933 6.78814 1.67461 6.73133 1.75196 6.69686C1.82931 6.66238 1.91519 6.65179 1.9986 6.66646C2.082 6.68112 2.15913 6.72037 2.22007 6.77916C2.28102 6.83796 2.32301 6.91362 2.34067 6.99645C2.35832 7.07927 2.35082 7.16548 2.31914 7.24402C2.28746 7.32256 2.23305 7.38984 2.16287 7.43723C2.09269 7.48463 2.00995 7.50998 1.92526 7.51003C1.81457 7.51191 1.70765 7.46979 1.62798 7.39293C1.5483 7.31606 1.50237 7.21072 1.50026 7.10003Z" fill="#231F20"/>
<path d="M12.3772 9.07501C11.8703 8.92756 11.3259 8.98319 10.8592 9.23013C10.3926 9.47707 10.0404 9.89592 9.87722 10.398C9.78469 10.639 9.74146 10.8961 9.7501 11.1541C9.75875 11.4121 9.81908 11.6657 9.92753 11.8999C10.036 12.1342 10.1903 12.3443 10.3815 12.5178C10.5726 12.6913 10.7966 12.8247 11.0402 12.91C11.5472 13.0575 12.0916 13.0018 12.5582 12.7549C13.0248 12.5079 13.377 12.0891 13.5402 11.587C13.6328 11.346 13.676 11.0889 13.6673 10.8309C13.6587 10.573 13.5984 10.3193 13.4899 10.0851C13.3815 9.85083 13.2271 9.64073 13.036 9.46723C12.8448 9.29373 12.6208 9.16035 12.3772 9.07501ZM12.6032 11.283C12.5234 11.5281 12.3513 11.7325 12.1235 11.8531C11.8956 11.9737 11.6298 12.0009 11.3822 11.929C11.2632 11.8873 11.1538 11.8222 11.0604 11.7375C10.9671 11.6527 10.8916 11.5501 10.8387 11.4357C10.7857 11.3212 10.7562 11.1973 10.752 11.0713C10.7478 10.9453 10.769 10.8197 10.8142 10.702C10.8941 10.4569 11.0661 10.2525 11.294 10.1319C11.5218 10.0114 11.7877 9.98413 12.0352 10.056C12.1542 10.0977 12.2637 10.1628 12.357 10.2476C12.4504 10.3323 12.5258 10.4349 12.5788 10.5494C12.6317 10.6638 12.6612 10.7877 12.6654 10.9137C12.6696 11.0397 12.6485 11.1653 12.6032 11.283Z" fill="#231F20"/>
</g>
</svg>
