<svg width="266" height="60" viewBox="0 0 266 60" fill="none" xmlns="http://www.w3.org/2000/svg">
<mask id="mask0_9_5835" style="mask-type:luminance" maskUnits="userSpaceOnUse" x="0" y="0" width="266" height="60">
<path d="M266 0H0V60H266V0Z" fill="white"/>
</mask>
<g mask="url(#mask0_9_5835)">
<path d="M50.925 19.393C54.809 15.488 49.352 14.274 47.409 12.322C45.466 10.37 44.261 4.881 40.378 8.787C36.495 12.693 34.921 20.976 36.862 22.929C38.803 24.882 47.043 23.299 50.925 19.393ZM12.252 12.322C10.311 14.274 4.852 15.488 8.736 19.393C12.62 23.298 20.858 24.882 22.8 22.929C24.742 20.976 23.168 12.692 19.284 8.787C15.4 4.882 14.195 10.37 12.253 12.322M8.736 40.607C4.854 44.512 10.31 45.725 12.252 47.678C14.194 49.631 15.401 55.119 19.283 51.214C23.165 47.309 24.741 39.024 22.799 37.072C20.857 35.12 12.62 36.7 8.736 40.607ZM36.862 37.071C34.921 39.023 36.494 47.308 40.378 51.213C44.262 55.118 45.468 49.63 47.409 47.677C49.35 45.724 54.809 44.511 50.925 40.606C47.041 36.701 38.8 35.118 36.862 37.071ZM29.831 0C27.085 0 24.859 4.477 24.859 10C24.859 15.523 27.085 20 29.831 20C32.577 20 34.8 15.523 34.8 10C34.8 4.477 32.577 0 29.831 0ZM19.888 30C19.888 27.239 15.435 25 9.943 25C4.451 25 0 27.239 0 30C0 32.761 4.451 35 9.943 35C15.435 35 19.888 32.761 19.888 30ZM29.831 40C27.085 40 24.859 44.477 24.859 50C24.859 55.523 27.085 60 29.831 60C32.577 60 34.8 55.523 34.8 50C34.8 44.477 32.573 40 29.827 40M49.72 25C44.228 25 39.775 27.239 39.775 30C39.775 32.761 44.227 35 49.72 35C55.213 35 59.663 32.761 59.663 30C59.663 27.239 55.21 25 49.72 25Z" fill="#D71927"/>
<path d="M29.8311 22.5C28.3459 22.4917 26.8918 22.9245 25.6529 23.7435C24.414 24.5625 23.4462 25.731 22.8721 27.1006C22.298 28.4703 22.1435 29.9796 22.4281 31.4373C22.7127 32.8949 23.4237 34.2352 24.4709 35.2883C25.5181 36.3414 26.8544 37.0599 28.3104 37.3527C29.7664 37.6455 31.2765 37.4994 32.6494 36.933C34.0223 36.3666 35.1961 35.4054 36.0221 34.1711C36.8481 32.9368 37.289 31.4851 37.2891 30C37.2918 29.0178 37.1011 28.0446 36.7277 27.1361C36.3543 26.2276 35.8057 25.4015 35.113 24.705C34.4204 24.0086 33.5973 23.4554 32.6909 23.077C31.7844 22.6987 30.8133 22.5026 29.8311 22.5Z" fill="#060506"/>
<path d="M103.094 42.691C100.812 44.2154 98.1596 45.0947 95.4184 45.2358C92.6772 45.3769 89.9488 44.7746 87.5217 43.4927C85.0946 42.2107 83.0591 40.2967 81.6303 37.953C80.2016 35.6093 79.4327 32.9231 79.4051 30.1784C79.3774 27.4337 80.092 24.7326 81.4732 22.3606C82.8544 19.9886 84.851 18.0339 87.2517 16.7033C89.6524 15.3727 92.3682 14.7155 95.1116 14.8014C97.8551 14.8872 100.524 15.7129 102.837 17.191V22.434H102.312L101.264 17.914C96.4763 15.472 90.3883 16.489 85.7913 21.114C80.1203 26.814 79.8863 34.862 84.8523 39.857C89.3003 44.33 96.1813 44.604 101.642 40.517L103.094 42.691ZM234.788 16.291H237.121C240.044 16.291 243.248 18.928 243.248 23.366V24.113C243.269 25.8004 242.632 27.4295 241.473 28.656C240.314 29.8825 238.723 30.6101 237.037 30.685H234.788V16.291ZM245.914 42.275C241.225 41.647 238.453 37.307 237.721 32.051H238.201C240.441 32.051 245.92 30.798 245.92 24.114V23.445C245.986 22.3795 245.836 21.3118 245.48 20.3053C245.125 19.2989 244.57 18.3742 243.85 17.5864C243.13 16.7985 242.259 16.1635 241.288 15.7192C240.317 15.2749 239.267 15.0303 238.2 15H230.01V15.509L232.11 16.974V42.049L230.01 44.419V45H235.625V44.491L234.788 43.907V32.054H236.379C236.853 36.66 238.845 45.244 247.137 45.244V41.234H246.637L245.914 42.275ZM260.509 32.738H254.93L257.846 20.783L260.509 32.738ZM260.817 34.107L263.2 45H266L259.3 15H254.611V15.509L257.24 17.338L251.219 42.048L249.119 44.419V45H254.733V44.491L252.454 42.9L254.594 34.1L260.817 34.107ZM151.748 32.737H146.169L149.087 20.782L151.748 32.737ZM152.056 34.106L154.443 45H157.243L150.543 15H145.856V15.509L148.485 17.338L142.463 42.048L140.363 44.419V45H145.977V44.491L143.7 42.9L145.84 34.1L152.056 34.106ZM138.907 38.084C138.7 44.022 133.884 45.248 131.324 45.248C130.037 45.2864 128.756 45.0412 127.574 44.5299C126.392 44.0185 125.336 43.2535 124.482 42.289V36.4H125.133C125.322 37.458 125.565 38.5057 125.861 39.539C126.08 40.3586 126.419 41.1409 126.869 41.86C127.328 42.6762 128.005 43.3483 128.825 43.8006C129.645 44.2528 130.574 44.4674 131.509 44.42C133.979 44.42 136.456 42.259 136.585 38.567C136.696 35.375 134.734 32.876 131.176 30.383C127.618 27.89 124.587 26.275 124.754 21.462C124.948 15.901 129.454 14.754 131.854 14.754C133.011 14.6702 134.171 14.8776 135.227 15.3573C136.283 15.837 137.202 16.5736 137.9 17.5V23.017H137.291C136.949 21.2882 136.49 19.5844 135.919 17.917C135.573 17.1422 134.992 16.4953 134.26 16.0672C133.527 15.6391 132.678 15.4512 131.833 15.53C131.176 15.5232 130.524 15.6502 129.917 15.9031C129.309 16.1561 128.76 16.5298 128.302 17.0015C127.844 17.4732 127.486 18.0331 127.251 18.6472C127.016 19.2613 126.908 19.9168 126.933 20.574C126.824 23.707 128.742 25.738 132.616 28.191C136.49 30.644 139.059 33.816 138.916 38.085M198.128 40.285H198.634V45H184.515V44.42L186.62 42.049V16.974L184.515 15.509V15H189.27V43.631H195.818L198.128 40.285ZM180.771 15V21.557H180.247L179.419 17.028H173.419V30H175.371L177.156 26.16H177.566V32.95H177.1L176.47 31.369H173.42V43.881L174.281 44.473V45H168.667V44.42L170.767 42.049V16.986L168.645 15.509V15H180.771ZM221.92 38.907C216.25 44.607 208.248 44.847 203.281 39.852C198.314 34.857 198.549 26.812 204.219 21.109C209.889 15.406 217.83 15.185 222.799 20.181C227.768 25.177 227.59 33.204 221.92 38.907ZM202.313 19.23C200.175 21.3559 198.717 24.0688 198.122 27.0247C197.528 29.9806 197.824 33.0464 198.974 35.8336C200.124 38.6208 202.076 41.0038 204.581 42.6807C207.087 44.3575 210.034 45.2527 213.049 45.2527C216.064 45.2527 219.012 44.3575 221.517 42.6807C224.023 41.0038 225.975 38.6208 227.124 35.8336C228.274 33.0464 228.571 29.9806 227.976 27.0247C227.382 24.0688 225.923 21.3559 223.785 19.23C222.38 17.8128 220.707 16.688 218.864 15.9204C217.022 15.1527 215.045 14.7575 213.049 14.7575C211.053 14.7575 209.077 15.1527 207.234 15.9204C205.391 16.688 203.719 17.8128 202.313 19.23ZM116.6 32.737H111.022L113.938 20.782L116.6 32.737ZM116.908 34.106L119.3 45H122.1L115.4 15H110.71V15.509L113.339 17.338L107.319 42.048L105.212 44.419V45H110.826V44.491L108.549 42.9L110.689 34.1L116.908 34.106Z" fill="#060506"/>
</g>
</svg>
